<?xml version="1.0" encoding="utf-8"?>
<!-- Generator: Adobe Illustrator 25.0.1, SVG Export Plug-In . SVG Version: 6.00 Build 0)  -->
<svg version="1.1" id="Layer_1" xmlns="http://www.w3.org/2000/svg" xmlns:xlink="http://www.w3.org/1999/xlink" x="0px" y="0px"
	 viewBox="0 0 1757.3 399.4" style="enable-background:new 0 0 1757.3 399.4;" xml:space="preserve">
<style type="text/css">
	.st0{fill:#00EABE;}
	.st1{enable-background:new    ;}
	.st2{fill:#4053B2;}
</style>
<g>
	<g>
		<polygon class="st0" points="123,346 0,346 230.2,0 346.7,0.2 		"/>
		<path class="st0" d="M186.9,0l-64.7,87.6c-15.9,21.5-48.3,20.8-63.3-1.4L0.8,0H186.9z"/>
		<path class="st0" d="M160.6,346l64.7-87.6c15.9-21.5,48.3-20.8,63.3,1.4l58.1,86.2L160.6,346z"/>
	</g>
	<g class="st1">
		<path d="M517.3,298h155.6v46h-236l159.2-243.3H438.7v-46h237.8L517.3,298z"/>
		<path d="M750.7,305.9l-92-166.5h54.8L776.2,257l58.4-117.6h53.3l-136.2,260h-54L750.7,305.9z"/>
		<path d="M907.1,139.4h47.5v18.9c16.5-16.4,35.1-24.6,55.9-24.6c23.8,0,42.3,7.5,55.6,22.5c11.5,12.7,17.2,33.5,17.2,62.4V344
			h-47.5V229.7c0-20.2-2.8-34.1-8.4-41.8c-5.5-7.8-15.4-11.8-29.8-11.8c-15.7,0-26.8,5.2-33.4,15.5c-6.4,10.2-9.7,28.1-9.7,53.5V344
			h-47.5V139.4z"/>
		<path d="M1120.4,240.2c0-29.5,10.6-54.7,31.7-75.4c21.1-20.7,46.9-31.1,77.3-31.1c30.5,0,56.4,10.4,77.7,31.3
			c21,20.9,31.5,46.5,31.5,76.9c0,30.7-10.6,56.4-31.7,77.1c-21.3,20.6-47.4,30.9-78.3,30.9c-30.7,0-56.4-10.5-77.1-31.5
			C1130.7,297.6,1120.4,271.6,1120.4,240.2z M1168.7,241.1c0,20.4,5.5,36.6,16.4,48.5c11.2,12,26,18.1,44.3,18.1
			c18.5,0,33.2-5.9,44.3-17.8c11.1-11.9,16.6-27.8,16.6-47.7c0-19.9-5.5-35.8-16.6-47.7c-11.2-12-26-18.1-44.3-18.1
			c-18.1,0-32.7,6-43.9,18.1C1174.3,206.5,1168.7,222,1168.7,241.1z"/>
		<path d="M1375.6,139.4h47.2v18.9c9.1-9.5,16.9-16,23.3-19.3c6.9-3.5,15.5-5.2,25.8-5.2c23.1,0,41.4,10.1,54.8,30.2
			c14.8-20.2,34.9-30.2,60.3-30.2c46.1,0,69.1,27.9,69.1,83.8V344h-47.5V230.3c0-19.6-2.4-33.5-7.1-41.6c-4.9-8.3-13-12.4-24.1-12.4
			c-13,0-22.5,4.9-28.5,14.7c-6,9.8-8.9,25.6-8.9,47.2V344h-47.5V231c0-36.4-10.5-54.6-31.5-54.6c-13.3,0-23,5-29.1,14.9
			c-6.1,9.9-9.1,25.6-9.1,47V344h-47.2V139.4z"/>
		<path d="M1695.8,54.4c0-8.3,3-15.4,9-21.4c6-6,13.2-9,21.6-9c8.5,0,15.8,3,21.8,9c6,5.9,9,13.1,9,21.6c0,8.5-3,15.8-9,21.8
			c-5.9,6-13.1,9-21.6,9c-8.5,0-15.8-3-21.8-9C1698.8,70.4,1695.8,63.1,1695.8,54.4z M1750.2,139.4V344h-47.2V139.4H1750.2z"/>
	</g>
</g>
</svg>
