<?xml version="1.0" encoding="utf-8"?>
<!-- Generator: Adobe Illustrator 25.0.1, SVG Export Plug-In . SVG Version: 6.00 Build 0)  -->
<svg version="1.1" id="Layer_1" xmlns="http://www.w3.org/2000/svg" xmlns:xlink="http://www.w3.org/1999/xlink" x="0px" y="0px"
	 viewBox="0 0 2979 1061" style="enable-background:new 0 0 2979 1061;" xml:space="preserve">
<style type="text/css">
	.st0{fill:#00EABE;}
	.st1{enable-background:new    ;}
</style>
<g>
	<g>
		<polygon class="st0" points="670.4,693.2 564,693.2 879.9,278.4 978.5,278.7 		"/>
		<path class="st0" d="M787.1,278.4l-77.6,105c-19.1,25.8-57.9,24.9-75.9-1.7L564,278.4H787.1z"/>
		<path class="st0" d="M755.5,693.2l77.6-105c19.1-25.8,58-24.9,75.9,1.6l69.6,103.3L755.5,693.2z"/>
	</g>
	<g class="st1">
		<path d="M1165,612.5h155.6v46h-236l159.2-243.3h-145.4v-46h225.8L1165,612.5z"/>
		<path d="M1398.5,620.5l-92-166.5h54.8l62.6,117.6l58.4-117.6h53.3l-142.9,273.2h-54L1398.5,620.5z"/>
		<path d="M1554.8,453.9h47.5v18.9c16.5-16.4,35.1-24.6,55.9-24.6c23.8,0,42.3,7.5,55.6,22.5c11.5,12.7,17.2,33.5,17.2,62.4v125.4
			h-47.5V544.2c0-20.2-2.8-34.1-8.4-41.8c-5.5-7.8-15.4-11.8-29.8-11.8c-15.7,0-26.8,5.2-33.4,15.5c-6.4,10.2-9.7,28.1-9.7,53.5
			v98.7h-47.5V453.9z"/>
		<path d="M1768.1,554.7c0-29.5,10.6-54.7,31.7-75.4c21.1-20.7,46.9-31.1,77.3-31.1c30.5,0,56.4,10.4,77.7,31.3
			c21,20.9,31.5,46.5,31.5,76.9c0,30.7-10.6,56.4-31.7,77.1c-21.3,20.6-47.4,30.9-78.3,30.9c-30.7,0-56.4-10.5-77.1-31.5
			C1778.4,612.1,1768.1,586.1,1768.1,554.7z M1816.4,555.6c0,20.4,5.5,36.6,16.4,48.5c11.2,12,26,18.1,44.3,18.1
			c18.5,0,33.2-5.9,44.3-17.8c11.1-11.9,16.6-27.8,16.6-47.7c0-19.9-5.5-35.8-16.6-47.7c-11.2-12-26-18.1-44.3-18.1
			c-18.1,0-32.7,6-43.9,18.1C1822,521,1816.4,536.5,1816.4,555.6z"/>
		<path d="M2023.3,453.9h47.2v18.9c9.1-9.5,16.9-16,23.3-19.3c6.9-3.5,15.5-5.2,25.8-5.2c23.1,0,41.4,10.1,54.8,30.2
			c14.8-20.2,34.9-30.2,60.3-30.2c46.1,0,69.1,27.9,69.1,83.8v126.4h-47.5V544.9c0-19.6-2.4-33.5-7.1-41.6
			c-4.9-8.3-13-12.4-24.1-12.4c-13,0-22.5,4.9-28.5,14.7c-6,9.8-8.9,25.6-8.9,47.2v105.6h-47.5v-113c0-36.4-10.5-54.6-31.5-54.6
			c-13.3,0-23,5-29.1,14.9c-6.1,9.9-9.1,25.6-9.1,47v105.6h-47.2V453.9z"/>
		<path d="M2343.5,368.9c0-8.3,3-15.4,9-21.4c6-6,13.2-9,21.6-9c8.5,0,15.8,3,21.8,9c6,5.9,9,13.1,9,21.6c0,8.5-3,15.8-9,21.8
			c-5.9,6-13.1,9-21.6,9c-8.5,0-15.8-3-21.8-9C2346.5,384.9,2343.5,377.6,2343.5,368.9z M2397.9,453.9v204.5h-47.2V453.9H2397.9z"/>
	</g>
</g>
</svg>
