<svg id="Layer_1" data-name="Layer 1" xmlns="http://www.w3.org/2000/svg" viewBox="0 0 6916.73 1918.23"><defs><style>.cls-1{fill:#00eabe;}.cls-2,.cls-4{font-size:440px;font-family:SFProText-Regular, SF Pro Text;letter-spacing:-0.03em;}.cls-2,.cls-3{fill:#fff;}</style></defs><polygon class="cls-1" points="3553.18 580.59 3404.27 580.59 3846.41 0 3984.51 0.35 3553.18 580.59"/><path class="cls-1" d="M3745.53,234.07,3636.9,381c-26.69,36.1-81.08,34.92-106.17-2.32l-97.46-144.62Z" transform="translate(-29 -234.07)"/><path class="cls-1" d="M3701.25,814.66l108.63-146.94c26.69-36.1,81.07-34.92,106.17,2.31l97.46,144.63Z" transform="translate(-29 -234.07)"/><text class="cls-2" transform="translate(4227.7 460.73)">Zynomi </text><polygon class="cls-3" points="4657.18 1700.59 4508.27 1700.59 4950.41 1120 5088.51 1120.35 4657.18 1700.59"/><path class="cls-3" d="M4849.53,1354.07,4740.9,1501c-26.69,36.1-81.08,34.92-106.17-2.32l-97.46-144.62Z" transform="translate(-29 -234.07)"/><path class="cls-3" d="M4805.25,1934.66l108.63-146.94c26.69-36.1,81.07-34.92,106.17,2.31l97.46,144.63Z" transform="translate(-29 -234.07)"/><text class="cls-2" transform="translate(5331.7 1580.73)">Zynomi </text><polygon points="1551.18 1700.59 1402.27 1700.59 1844.41 1120 1982.51 1120.35 1551.18 1700.59"/><path d="M1743.53,1354.07,1634.9,1501c-26.69,36.1-81.08,34.92-106.17-2.32l-97.46-144.62Z" transform="translate(-29 -234.07)"/><path d="M1699.25,1934.66l108.63-146.94c26.69-36.1,81.07-34.92,106.17,2.31l97.46,144.63Z" transform="translate(-29 -234.07)"/><text class="cls-4" transform="translate(2225.7 1580.73)">Zynomi </text><polygon class="cls-1" points="405.18 580.59 256.27 580.59 698.41 0 836.51 0.35 405.18 580.59"/><path class="cls-1" d="M597.53,234.07,488.9,381c-26.69,36.1-81.08,34.92-106.17-2.32L285.27,234.07Z" transform="translate(-29 -234.07)"/><path class="cls-1" d="M553.25,814.66,661.88,667.72C688.57,631.62,743,632.8,768.05,670l97.46,144.63Z" transform="translate(-29 -234.07)"/><text class="cls-4" transform="translate(1079.7 460.73)">Zynomi </text><polygon class="cls-1" points="257.4 1918.23 0 1918.23 764.29 914.63 1003 915.23 257.4 1918.23"/><path class="cls-1" d="M568.77,1148.7,381,1402.69c-46.14,62.41-140.15,60.36-183.53-4L29,1148.7Z" transform="translate(-29 -234.07)"/><path class="cls-1" d="M492.23,2152.3l187.77-254c46.14-62.41,140.15-60.36,183.53,4l168.47,250Z" transform="translate(-29 -234.07)"/></svg>